<?xml version="1.0" encoding="UTF-8"?>
<svg version="1.1" viewBox="0 0 412.69 542.59" xmlns="http://www.w3.org/2000/svg" xmlns:xlink="http://www.w3.org/1999/xlink">
 <defs>
  <radialGradient id="ac" cx="2231.7" cy="67.719" r="64.401" gradientTransform="matrix(2.2469 -.037007 .028746 1.7453 -3336.2 917.58)" gradientUnits="userSpaceOnUse" xlink:href="#u"/>
  <linearGradient id="u">
   <stop stop-color="#ffd6bb" offset="0"/>
   <stop stop-color="#481c00" offset="1"/>
  </linearGradient>
  <radialGradient id="ad" cx="643.26" cy="181.95" r="47.65" gradientTransform="matrix(2.2379 -1.0247 1.8288 4.1252 -121.37 1211.5)" gradientUnits="userSpaceOnUse" xlink:href="#v"/>
  <linearGradient id="v">
   <stop stop-color="#666" offset="0"/>
   <stop stop-color="#666" offset=".43855"/>
   <stop stop-color="#b3b3b3" offset=".62542"/>
   <stop stop-color="#666" offset=".81045"/>
   <stop stop-color="#666" offset="1"/>
  </linearGradient>
  <radialGradient id="ae" cx="894.35" cy="170.01" r="59.826" gradientTransform="matrix(1.912 -.019267 .014301 1.4192 183.14 1054.5)" gradientUnits="userSpaceOnUse" xlink:href="#v"/>
  <linearGradient id="y" x1="796.96" x2="700" y1="-47.995" y2="25.398" gradientTransform="translate(1001.2 1122.6)" gradientUnits="userSpaceOnUse">
   <stop stop-color="#520" offset="0"/>
   <stop stop-color="#2b1100" offset="1"/>
  </linearGradient>
  <linearGradient id="z" x1="776.06" x2="699.59" y1="-50.281" y2="-15.638" gradientTransform="translate(1001.2 1122.6)" gradientUnits="userSpaceOnUse" xlink:href="#a"/>
  <linearGradient id="a">
   <stop stop-color="#fff" offset="0"/>
   <stop stop-color="#b3b3b3" offset="1"/>
  </linearGradient>
  <radialGradient id="af" cx="722.58" cy="-104.78" r="57.493" gradientTransform="matrix(1 0 0 1.2775 1001.2 1148.8)" gradientUnits="userSpaceOnUse">
   <stop stop-color="#fe6600" offset="0"/>
   <stop stop-color="#a40" offset="1"/>
  </radialGradient>
  <linearGradient id="aa" x1="625.36" x2="743.57" y1="-161.21" y2="-209.78" gradientTransform="translate(1001.2 1122.6)" gradientUnits="userSpaceOnUse">
   <stop stop-color="#680000" offset="0"/>
   <stop stop-color="#a00" offset="1"/>
  </linearGradient>
  <linearGradient id="ab" x1="767.74" x2="734.86" y1="-253.26" y2="-96.181" gradientTransform="translate(1001.2 1122.6)" gradientUnits="userSpaceOnUse" xlink:href="#u"/>
  <radialGradient id="ag" cx="754.96" cy="-158.96" r="23.051" gradientTransform="matrix(1 0 0 .79818 1001.2 1090.5)" gradientUnits="userSpaceOnUse" xlink:href="#a"/>
  <radialGradient id="ah" cx="758.98" cy="-267.09" r="33.212" gradientTransform="matrix(.86313 -.015208 .041597 2.3609 1116.2 1499.8)" gradientUnits="userSpaceOnUse" xlink:href="#a"/>
  <radialGradient id="ai" cx="-83.006" cy="-120.72" r="7.8516" gradientTransform="matrix(.87517 -.0086511 .013229 1.3383 1705.7 1145.8)" gradientUnits="userSpaceOnUse">
   <stop stop-color="#d45500" offset="0"/>
   <stop stop-color="#ffd42a" offset=".59885"/>
   <stop stop-color="#ffea93" offset=".75805"/>
   <stop stop-color="#d4aa00" offset="1"/>
  </radialGradient>
  <clipPath id="s">
   <path d="m512.86 549.15 16.071-15.357 101.43-0.35714 17.5 15.357-8.5714 28.571-15 15h-88.929l-13.929-15.714-8.5714-27.5z" fill="#ccc" fill-rule="evenodd"/>
  </clipPath>
  <linearGradient id="w" x1="564.08" x2="564.08" y1="597.37" y2="527.37" gradientUnits="userSpaceOnUse">
   <stop stop-color="#c4c8b7" offset="0"/>
   <stop stop-color="#c4c8b7" stop-opacity="0" offset="1"/>
  </linearGradient>
  <filter id="t" color-interpolation-filters="sRGB">
   <feGaussianBlur stdDeviation="1.6739677"/>
  </filter>
  <linearGradient id="x" x1="599.17" x2="580.51" y1="607.01" y2="510.15" gradientUnits="userSpaceOnUse">
   <stop offset="0"/>
   <stop stop-color="#ccc" stop-opacity="0" offset="1"/>
  </linearGradient>
 </defs>
 <g transform="translate(-185.07 -335.37)">
  <g transform="translate(-1393.6 -464.08)">
   <path d="m1624.4 987.12c-0.7292 1.6369-2.5225 2.8481-1.0714 5.3571 5.6594 1.3847 8.3586 0.40119 11.786 0 0.5206 4.6287 1.1494 8.9327 2.1429 12.143 3.5714 3.355 7.1428 1.5491 10.714-0.7142 0.2006-2.2994 0.2732-4.7268 0-7.5 2.4096 0.74717 5.9079 0.81816 6.7857 3.5714 2.5795 8.0907 4.1511 14.747 6.0714 18.929 1.554 3.3837 1.4117 8.2775 1.0714 10.357-0.8033 4.91-3.6075 7.9126-5 11.786-2.6975 7.5034 2.1157 8.5917 5 5.7143 2.0849-2.0798 2.381-5.2793 3.5715-7.5 0.9523-0.1653 1.9047-0.7135 2.8571 0 1.1947-2.5822 1.2954-4.435 1.0714-6.0714l2.1429-3.9286 8.5714-2.5 9.6429-35.714-46.786-16.071-15.714 6.7857z" fill="#680000" stroke="#000" stroke-width="5"/>
   <path d="m1632.1 971.76c-22.455-6.0431-14.823 24.417 1.6071 12.143 12.153 1.3763 23.004 9.2678 34.286 15l14.643 9.6428 50.179-27.857c3.444-18.197 8.2642-35.936 9.1071-55-18.738-23.451-40.64-19.223-61.071-27.857-26.692 20.81-58.241 39.836-48.75 73.929z" fill="url(#ac)" stroke="#000" stroke-linecap="round" stroke-linejoin="round" stroke-width="5"/>
   <path d="m1694.1 981.45c10.218 11.284 18.835 6.5123 20.357-4.7041" fill="none" stroke="#000" stroke-linecap="round" stroke-linejoin="round" stroke-width="3"/>
   <path d="m1611.2 965.69s-13.507-5.9978-13.928-12.143c-0.2275-3.3169-3.1406-5.2436-6.0715-7.1429-2.3578-1.528-3.5244-4.1575-5-6.7857-1.2413-2.211-3.3038-4.6912-1.4285-8.9286 1.5624-3.5304 2.3221-6.1955 2.1428-9.2857-0.27-4.6545-1.5446-8.0985-3.2143-10.357-1.4673-1.985-3.8832-6.0179-1.7857-8.5714 2.2879-2.7852 4.3618-5.4373 4.2857-8.9286-0.074-3.4117 2.594-2.8113 4.6429-4.2857 3.2625-2.3477 2.1422-5.9996 0.7143-7.5 0 0-0.9526-5.3788 3.9286-6.4286 1.5614-0.33582 1.6864-3.5623 2.5-5.3571 1.3423-2.9615 0.7145-8.4359 3.9285-8.9286 2.0177-0.30925 2.0677-3.4429 3.2143-3.9286 2.7898-1.1818 6.3893 0.059 7.8572-2.1429 0 0 1.8171-4.1208 3.5714-5.3571 1.6049-1.131 3.255-0.26662 5.7143-1.4286 2.4149-1.141 2.4216-5.1592 6.0714-5.7143 2.4263-0.369 3.4846-3.6173 5.7143-4.6429 2.4184-1.1123 6.2014 1.236 8.1097 1.4756 1.3935 0.17498 9.1955-3.797 11.89-3.6185 2.0779 0.1377 4.5453-5.4612 5.3571-4.2857 0.8497 1.2302 7.0946 4.1205 9.2857 2.5 1.1486-0.84945 4.3901-3.9228 7.1429-4.2857 1.7185-0.22652 3.2688 1.3425 5 1.4286 2.7882 0.13867 5.9949-0.96325 7.8571 1.7857 1.6518 2.4382 6.0729 1.5186 8.5715 2.1429 2.4535 0.61303 7.0312-2.0658 9.6032 0.8387 1.1522 1.3012 3.6006 4.0071 6.4682 5.2327 1.7651 0.75441 3.8223 1.0384 5.7143 0.71429 1.0495-0.17977 1.8003-1.5587 2.8571-1.4286 1.0894 0.1341 1.5857 1.5357 2.5 2.1429 1.9959 1.3252 4.2123 2.3045 6.4286 3.2143 11.005 4.5178 33.929 11.071 33.929 11.071l0.7143 62.857-23.214-2.5-72.143-10.714-43.929 47.857z" stroke="#000" stroke-linecap="round" stroke-linejoin="round" stroke-width="5"/>
   <path d="m1662.1 1229.4c-6.6952 2.1411-12.026 3.5135-17.221 9.2428-10.363 11.43-5.3222 20.292 0.7029 26.333 11.022 11.052 17.238 20.764 21.789 33.135 4.3516 11.828 10.658 20.348 18.626 27.903 20.099 13.67 49.888 15.901 62.205 0 9.6042-12.399-5.8935-37.561-10.192-53.713z" fill="#ccc" stroke="#000" stroke-linecap="round" stroke-linejoin="round" stroke-width="9.8031"/>
   <path d="m1650.8 1227.1c-4.1472 5.2765-7.3196 11.628-2.9794 17.222 12.624 12.8 23.412 34.309 34.636 53.746 9.0836 15.73 32.374 19.451 41.34 18.546 9.9632 0.5163 25.074-9.5974 18.808-22.52-21.972-45.314-3.082-17.323-5.0278-29.333l-72.857-46.443c-5.0023 2.6986-9.5267 3.1946-13.919 8.7831z" fill="url(#ad)" stroke="#000" stroke-linecap="round" stroke-linejoin="round" stroke-width="5.2563"/>
   <path d="m1741.9 1247.8c-0.097 1.837-3.7057 4.31-3.0499 7.21 1.7267 7.6354 4.6893 15.001-0.8786 18.862 1.4865 3.6599 0.6673 6.167 0.3571 8.9285-42.761 28.784-63.102-42.176-82.5-58.571-1.4898-11.402-3.0843-22.885 7.5-25z" fill="#000054" stroke="#000" stroke-linecap="round" stroke-linejoin="round" stroke-width="5"/>
   <path d="m1981.1 1256.7c22.698 30.868-31.698 76.595-83.041 35.382-9.973-8.0051-16.849-7.4725-23.214-9.2857-19.627-5.5909-12.903-17.152-11.786-26.071l61.428-22.5z" fill="#ccc" stroke="#000" stroke-width="10"/>
   <path d="m1869.4 1259.3c1.5875 3.9219 3.7523 7.977 11.072 10.714 3.8 1.4212 4.5624-1.3385 7.1428-2.5 5.0007-2.251 10.169 2.6364 16.429 9.2857 10.72 11.387 27.398 13.023 46.429 9.2857 13.002-2.5533 33.238-14.786 33.571-26.786 0.4866-17.522-19.472-35.573-51.071-46.071z" fill="url(#ae)" stroke="#000" stroke-width="5"/>
   <path d="m1930.5 1197.1c10.033-1.8828 15.097 14.078 10.714 25.714-5.1586 13.695-23.45 31.664-77.5 37.857-24.492 1.8946-26.024-27.904-23.214-43.572z" fill="#000054" stroke="#000" stroke-linecap="round" stroke-linejoin="round" stroke-width="5"/>
   <path d="m1716.2 1104.3 7.8572 47.143c0.4364 8.0591-4.9634 17.179-15 27.143-8.2397 1.9049-11.766-4.7728-27.857 11.429-6.8553 0.3865-12.906 3.1881-17.857 9.2857 32.695 21.663 39.863 83.234 78.571 48.571 19.581-32.743 44.625-54.559 52.857-110 7.181 5.203 6.7328 0.017 22.857 16.429 12.478 12.7 22.582 14.942 24.286 53.571 0.1649 3.7363-0.6724 6.4705-1.4285 9.2857 30 13.024 60 22.172 90-20 0 0-12.781-14.629-17.857-22.857-5.2566-8.5203-7.3855-18.759-12.857-27.143-5.166-7.9154-12.691-14.028-18.572-21.428-4.0293-5.0709-6.6362-11.357-11.428-15.714-13.506-12.279-31.387-18.642-47.143-27.857-4.5121-2.6391-13.571-7.8571-13.571-7.8571z" fill="#000030" stroke="#000" stroke-linecap="round" stroke-linejoin="round" stroke-width="5"/>
   <path d="m1795.7 1060.8c8.2555 2.2053 11.414 8.233 14.395 14.395-25.402 18.374-44.527 32.754-64.902 45.709-10.749 6.8346-20.282 24.228-24.496 31.062-22.088 35.819-50.932-6.1648-24.244-22.476 7.1025-4.3407 14.075-6.2334 26.264-14.647 30.005-15.176 50.674-35.019 72.984-54.043z" fill="url(#y)" stroke="#000" stroke-linecap="round" stroke-linejoin="round" stroke-width="5"/>
   <path d="m1677.8 1025.3c-5.5368 22.598-29.984 51.585 14.9 56.442 2.81 0.3041 6.4984 1.6731 6.566 5.0508 0.1049 5.2469 4.2804 4.5046 6.9448 6.3134l6.3134-36.113z" fill="#803300" stroke="#000" stroke-linecap="round" stroke-linejoin="round" stroke-width="5"/>
   <path d="m1776.5 1078.5c5.2968 3.1211 9.6908 7.1451 12.374 12.879-2.5938 4.1818-6.3455 6.2407-10.354 7.8287-4.6571-4.1498-7.5657-8.4939-10.102-12.879z" fill="#803300" stroke="#000" stroke-linecap="round" stroke-linejoin="round" stroke-width="5"/>
   <path d="m1787.1 1053.7c3.889 0.3033 8.126-0.09 8.3338 7.5761-22.543 22.532-41.073 43.42-83.341 48.962-7.7526-2.9246-5.5321-8.4114-5.6515-13.132 36.766-4.0698 58.627-19.849 80.659-43.406z" fill="url(#z)" stroke="#000" stroke-linecap="round" stroke-linejoin="round" stroke-width="5"/>
   <path d="m1774.4 974.58c2.4551-4.1574 0.5606-10.031 2.5667-9.6679 1.4959 0.6834 3.9874-0.0384 2.208 14.869-13.546 8.7229-16.261 19.415-24.39 29.123-2.8138 4.5959-5.9146 8.9242-1.7857 20 3.6211 0.054 6.4958 1.9746 8.2142 6.7857 4.2348-0.1872 5.4951 2.6001 7.5 4.6428 1.7704 1.1598 4.0797 3.3975 8.2143 9.2857 2.4734-2.2957 5.8837-1.312 9.2857-0.3571 0.9428 1.9144 1.6508 4.0636 0.7143 7.8571-19.573 22.276-42.556 41.065-82.857 42.143 1.9586-7.0629 0.9946-15.879 0.7143-24.286 0.2574-3.0438-0.2858-7.5604-3.5715-10-24.117-17.907-25.533-35.318-22.857-54.286-0.2408-1.8629-0.6814-5.0868 2.8571-8.5715 7.7093-7.5918 9.8786-11.389 32.5-15.714 15.737-3.0091 17.062-26.56 21.829-29.037 7.7045 14.009 18.952 20.714 27.457 21.537 5.4153 0.52362 7.6531-0.91697 11.401-4.324z" fill="url(#af)" stroke="#000" stroke-linecap="round" stroke-linejoin="round" stroke-width="5"/>
   <path d="m1753.9 1010.8c-4.0791 6.0081-10.398 10.272-16.415 14.647 4.9035-2.8629 10.029-2.4691 14.521-10.607z" fill="none" stroke="#000" stroke-linecap="round" stroke-linejoin="round" stroke-width="5"/>
   <path d="m1740.8 948.37c-0.5494-1.4432 0.8621-2.3096 2.8572-1.4286 7.9494 3.5104 17.144 8.6857 31.428 19.375l-4.5535 7.2321-23.75-9.4643z" stroke="#000" stroke-linecap="round" stroke-linejoin="round" stroke-width="5"/>
   <path d="m1743.5 895.28s-50.691 25.733-56.473 40.359l-0.022 0.21228c6.4587-10.14 56.486-40.571 56.486-40.571z" fill-rule="evenodd" stroke="#000" stroke-width=".36266px"/>
   <path d="m1606.1 956.94s53.495-19.237 68.104-13.413l0.1695 0.12961c-11.809-2.2551-68.267 13.277-68.267 13.277z" fill-rule="evenodd" stroke="#000" stroke-width=".36266px"/>
   <path d="m1752.3 925.69c-62.964-18.138-100.45 4.6632-117.86 48.214-9.0481-0.11808-17.902-0.6238-23.214-8.2143 16.918-63.207 72.856-107.26 143.39-51.786z" fill="url(#aa)" stroke="#000" stroke-linecap="round" stroke-linejoin="round" stroke-width="5"/>
   <path d="m1745.7 956.98c4.1495-26.029 7.1269-52.885 0-86.873l38.891-1.7678c-1.6808 37.321-10.294 70.021-19.95 102.03z" fill="url(#ab)" stroke="#000" stroke-linecap="round" stroke-linejoin="round" stroke-width="5"/>
   <path d="m1735.7 957.38c-0.2753-2.4811 0.5859-5.287 2.2322-7.7678 0.6917-1.0424 2.9068-3.3111 4.375-0.53572 7.5117 14.199 26.505 25.268 32.054 16.696 0.7086-1.0946 3.0117-2.0986 2.2322 2.9464-1.2109 13.869-20.516 18.52-40.893-11.339z" fill="url(#ag)" stroke="#000" stroke-linecap="round" stroke-linejoin="round" stroke-width="5"/>
   <path d="m1781.6 870.51c6.9707-3.2773 3.8966-19.394 3.2053-27.842-0.4539-5.5464 2.9218-13.811 3.8837-16.992 5.3208-17.594-8.1612-14.307-11.181-2.4404-0.8004 3.1453-2.2708-1.947-1.9008-3.6192 1.0851-6.1437-0.2868-12.032-1.3329-14.458-2.1414-4.9665-7.0581-2.7416-7.5269 2.3009-0.2319 2.4942-0.8387 7.7668-0.4903 10.727 0.3109 2.6414 0.5367 4.9387-0.8195 6.6149-0.7357 0.90922-1.0401 0.29975-1.9283-0.0212-1.5583-0.56302-2.0078-5.1461-2.1872-7.3539-0.3806-4.685 0.078-9.2549-1.1748-11.595-3.9892-7.4522-11.027-4.3606-9.6212 9.8489 0.454 4.59-0.19 6.8649-0.4934 9.8789-0.061 0.60488-1.0016 0.0987-1.259-0.27481-0.9147-1.3273-1.2171-2.9441-1.8407-4.4916-0.8286-2.0562-1.2989-5.8561-2.3162-6.9104-3.9402-4.0839-7.9117-1.2159-7.681 5.9184 0.1068 3.3039 0.2079 7.5508 1.4802 9.799 5.5525 9.8116 5.5938 12.079-0.5051 11.364-12.385-0.69549-21.429 10.413 2.7779 14.647 0.3494 5.2667 1.5669 9.752 4.2932 12.879 6.7887 5.3168 23.907 1.7799 36.618 2.0203z" fill="url(#ah)" stroke="#000" stroke-linecap="round" stroke-linejoin="round" stroke-width="5"/>
   <path d="m1628.2 980.96c3.2577-5.2381 6.6964-0.11813 6.5008 4.4718-0.1857 4.3568-5.6692 9.1639-6.8777 1.4102l-3.7321-0.23087c1.4798 14.846 14.897 8.2519 14.701-1.4863-0.1919-9.5314-8.9456-15.207-13.808-5.478z" fill="url(#ai)" stroke="#000" stroke-width="2"/>
   <path d="m1650.5 961.09 1.2003-4.221 16.925-9.1114 4.413 1.2267 1.3332 5.9506-1.0557 4.0606-14.87 7.9317-3.8505-1.6101-4.0958-4.2272z" fill="#fff" fill-rule="evenodd"/>
   <g transform="matrix(.16721 -.089192 .096824 .18152 1511.6 907.15)" clip-path="url(#s)">
    <path d="m614.64 561.29c0 25.247-16.43 45.714-36.696 45.714-20.267 0-36.696-20.467-36.696-45.714s16.43-45.714 36.696-45.714c20.267 0 36.696 20.467 36.696 45.714z" fill="#333" fill-rule="evenodd" stroke="#000" stroke-dashoffset="56" stroke-linecap="round" stroke-linejoin="round" stroke-width="2"/>
    <path transform="matrix(.82968 0 0 .82968 98.434 95.597)" d="m614.64 561.29c0 25.247-16.43 45.714-36.696 45.714-20.267 0-36.696-20.467-36.696-45.714s16.43-45.714 36.696-45.714c20.267 0 36.696 20.467 36.696 45.714z" fill="url(#w)" fill-rule="evenodd" filter="url(#t)"/>
    <path transform="matrix(.56796 0 0 .68125 249.69 169.81)" d="m614.64 561.29c0 25.247-16.43 45.714-36.696 45.714-20.267 0-36.696-20.467-36.696-45.714s16.43-45.714 36.696-45.714c20.267 0 36.696 20.467 36.696 45.714z" fill="url(#x)" fill-rule="evenodd"/>
    <path transform="matrix(.5289 0 0 .63439 272.27 196.1)" d="m614.64 561.29c0 25.247-16.43 45.714-36.696 45.714-20.267 0-36.696-20.467-36.696-45.714s16.43-45.714 36.696-45.714c20.267 0 36.696 20.467 36.696 45.714z" fill="#333" fill-rule="evenodd"/>
    <path d="m503.57 498.08 147.14 30.714" fill="none" stroke="#000" stroke-width="1px"/>
   </g>
   <path d="m1650.9 956.57-0.6663 4.7116c0.01 0.48826 0.1456 0.47879 0.3713 0.12983l1.1401-4.3679 16.82-8.9722 4.5641 1.1576c0.6457 0.0107 0.5895-0.13924 0.071-0.39501l-4.761-1.1618-17.54 8.8979z" fill-rule="evenodd" stroke="#000" stroke-linecap="round" stroke-linejoin="round"/>
   <path transform="matrix(.076935 -.1908 .1908 .076935 1511.9 1026.7)" d="m602.14 575.93c0 5.9173-5.8363 10.714-13.036 10.714-7.1994 0-13.036-4.797-13.036-10.714 0-5.9173 5.8363-10.714 13.036-10.714 7.1994 0 13.036 4.797 13.036 10.714z" fill="#fff" fill-rule="evenodd" opacity=".25633"/>
   <path d="m1654.4 965.05c-0.213 0.0234-0.8681-0.21235-0.1237 0.37203l0.1823 0.0776 3.8219 1.6409 0.1587-4e-3 14.814-7.9019 0.088-0.11237 3.4137-3.0014 0.051-0.19457c0.043-0.88441-0.2078-0.28461-0.3691-0.13828l-0.051 0.19457-3.3939 2.9252-14.672 7.8266-3.7363-1.6064-0.1824-0.0776z" fill-rule="evenodd" stroke="#000" stroke-linecap="round" stroke-linejoin="round"/>
   <path transform="matrix(.1263 -.054226 .068989 .14983 1547.9 905.02)" d="m567.68 557.99c0 6.3611-3.4778 11.518-7.7678 11.518-4.2901 0-7.7679-5.1567-7.7679-11.518 0-6.3611 3.4778-11.518 7.7679-11.518s7.7678 5.1567 7.7678 11.518z" fill="#fff" fill-rule="evenodd" opacity=".44937"/>
   <path d="m1715.2 924.83-4.1742-1.3541-16.994 8.9818-1.4392 4.3484 4.1996 4.4216 3.9605 1.3848 14.87-7.9317 0.8075-4.0947-1.2295-5.7562z" fill="#fff" fill-rule="evenodd"/>
   <g transform="matrix(-.16721 .089192 .096824 .18152 1747.8 779.41)" clip-path="url(#s)">
    <path d="m614.64 561.29c0 25.247-16.43 45.714-36.696 45.714-20.267 0-36.696-20.467-36.696-45.714s16.43-45.714 36.696-45.714c20.267 0 36.696 20.467 36.696 45.714z" fill="#333" fill-rule="evenodd" stroke="#000" stroke-dashoffset="56" stroke-linecap="round" stroke-linejoin="round" stroke-width="2"/>
    <path transform="matrix(.82968 0 0 .82968 98.434 95.597)" d="m614.64 561.29c0 25.247-16.43 45.714-36.696 45.714-20.267 0-36.696-20.467-36.696-45.714s16.43-45.714 36.696-45.714c20.267 0 36.696 20.467 36.696 45.714z" fill="url(#w)" fill-rule="evenodd" filter="url(#t)"/>
    <path transform="matrix(.56796 0 0 .68125 249.69 169.81)" d="m614.64 561.29c0 25.247-16.43 45.714-36.696 45.714-20.267 0-36.696-20.467-36.696-45.714s16.43-45.714 36.696-45.714c20.267 0 36.696 20.467 36.696 45.714z" fill="url(#x)" fill-rule="evenodd"/>
    <path transform="matrix(.5289 0 0 .63439 272.27 196.1)" d="m614.64 561.29c0 25.247-16.43 45.714-36.696 45.714-20.267 0-36.696-20.467-36.696-45.714s16.43-45.714 36.696-45.714c20.267 0 36.696 20.467 36.696 45.714z" fill="#333" fill-rule="evenodd"/>
    <path d="m503.57 498.08 147.14 30.714" fill="none" stroke="#000" stroke-width="1px"/>
   </g>
   <path d="m1711.2 922.7 4.2843 2.0709c0.401 0.27866 0.3166 0.38756-0.099 0.38069l-4.2627-1.4859-16.82 8.9722-1.5807 4.4354c-0.3507 0.54219-0.444 0.41205-0.3677-0.16089l1.6868-4.6013 17.159-9.611z" fill-rule="evenodd" stroke="#000"/>
   <path d="m1716.3 930.34c0.1381-0.16387 0.3072-0.83927 0.3779 0.10444l-0.037 0.19467-0.7659 4.0881-0.092 0.12929-14.814 7.9019-0.1422 0.0103-4.2731 0.76589-0.1898-0.0663c-0.7588-0.45648-0.1206-0.33114 0.091-0.38357l0.1898 0.0664 4.1989-0.79186 14.672-7.8266 0.7469-3.9979 0.037-0.19466z" fill-rule="evenodd" stroke="#000"/>
   <path transform="matrix(.1263 -.054226 .068989 .14983 1591.7 879.59)" d="m567.68 557.99c0 6.3611-3.4778 11.518-7.7678 11.518-4.2901 0-7.7679-5.1567-7.7679-11.518 0-6.3611 3.4778-11.518 7.7679-11.518s7.7678 5.1567 7.7678 11.518z" fill="#fff" fill-rule="evenodd" opacity=".44937"/>
   <path transform="matrix(.076935 -.1908 .1908 .076935 1554.8 1001.8)" d="m602.14 575.93c0 5.9173-5.8363 10.714-13.036 10.714-7.1994 0-13.036-4.797-13.036-10.714 0-5.9173 5.8363-10.714 13.036-10.714 7.1994 0 13.036 4.797 13.036 10.714z" fill="#fff" fill-rule="evenodd" opacity=".25633"/>
  </g>
 </g>
</svg>
